<mxfile host="app.diagrams.net" agent="Mozilla/5.0 (Windows NT 10.0; Win64; x64) AppleWebKit/537.36 (KHTML, like Gecko) Chrome/133.0.0.0 Safari/537.36" version="26.0.11">
  <diagram name="Página-1" id="MI9ZovfwcNpohBWArmDV">
    <mxGraphModel dx="1687" dy="908" grid="1" gridSize="10" guides="1" tooltips="1" connect="1" arrows="1" fold="1" page="1" pageScale="1" pageWidth="827" pageHeight="1169" math="0" shadow="0">
      <root>
        <mxCell id="0" />
        <mxCell id="1" parent="0" />
        <mxCell id="uUd_5qt_KTcbapUtHBXe-2" value="Lista de Tareas" style="swimlane;whiteSpace=wrap;html=1;" vertex="1" parent="1">
          <mxGeometry x="40" y="40" width="320" height="350" as="geometry">
            <mxRectangle x="120" y="120" width="140" height="30" as="alternateBounds" />
          </mxGeometry>
        </mxCell>
        <mxCell id="uUd_5qt_KTcbapUtHBXe-6" value="" style="rounded=0;whiteSpace=wrap;html=1;" vertex="1" parent="uUd_5qt_KTcbapUtHBXe-2">
          <mxGeometry x="10" y="75" width="220" height="45" as="geometry" />
        </mxCell>
        <mxCell id="uUd_5qt_KTcbapUtHBXe-4" value="Descripcion de la tarea:" style="text;html=1;align=center;verticalAlign=middle;resizable=0;points=[];autosize=1;strokeColor=none;fillColor=none;fontColor=#828282;" vertex="1" parent="uUd_5qt_KTcbapUtHBXe-2">
          <mxGeometry y="75" width="150" height="30" as="geometry" />
        </mxCell>
        <mxCell id="uUd_5qt_KTcbapUtHBXe-5" value="" style="rounded=0;whiteSpace=wrap;html=1;" vertex="1" parent="uUd_5qt_KTcbapUtHBXe-2">
          <mxGeometry x="10" y="40" width="220" height="20" as="geometry" />
        </mxCell>
        <mxCell id="uUd_5qt_KTcbapUtHBXe-3" value="Nombre de la tarea:" style="text;html=1;align=center;verticalAlign=middle;resizable=0;points=[];autosize=1;strokeColor=none;fillColor=none;fontColor=#828282;" vertex="1" parent="uUd_5qt_KTcbapUtHBXe-2">
          <mxGeometry y="35" width="130" height="30" as="geometry" />
        </mxCell>
        <mxCell id="uUd_5qt_KTcbapUtHBXe-7" value="" style="rounded=0;whiteSpace=wrap;html=1;" vertex="1" parent="uUd_5qt_KTcbapUtHBXe-2">
          <mxGeometry x="10" y="130" width="220" height="20" as="geometry" />
        </mxCell>
        <mxCell id="uUd_5qt_KTcbapUtHBXe-8" value="Fecha de vencimiento:" style="text;html=1;align=center;verticalAlign=middle;resizable=0;points=[];autosize=1;strokeColor=none;fillColor=none;fontColor=#828282;" vertex="1" parent="uUd_5qt_KTcbapUtHBXe-2">
          <mxGeometry x="5" y="125" width="140" height="30" as="geometry" />
        </mxCell>
        <mxCell id="uUd_5qt_KTcbapUtHBXe-62" value="" style="image;aspect=fixed;html=1;points=[];align=center;fontSize=12;image=img/lib/azure2/intune/Client_Apps.svg;" vertex="1" parent="uUd_5qt_KTcbapUtHBXe-2">
          <mxGeometry x="190" y="135" width="10" height="10" as="geometry" />
        </mxCell>
        <mxCell id="uUd_5qt_KTcbapUtHBXe-63" value="&lt;font style=&quot;font-size: 7px;&quot;&gt;07/02/2025&lt;/font&gt;" style="text;html=1;align=center;verticalAlign=middle;resizable=0;points=[];autosize=1;strokeColor=none;fillColor=none;fontColor=#828282;" vertex="1" parent="uUd_5qt_KTcbapUtHBXe-2">
          <mxGeometry x="130" y="125" width="60" height="30" as="geometry" />
        </mxCell>
        <mxCell id="uUd_5qt_KTcbapUtHBXe-81" value="+" style="rounded=0;whiteSpace=wrap;html=1;" vertex="1" parent="uUd_5qt_KTcbapUtHBXe-2">
          <mxGeometry x="70" y="170" width="190" height="20" as="geometry" />
        </mxCell>
        <mxCell id="uUd_5qt_KTcbapUtHBXe-64" value="Lista de Tareas" style="swimlane;whiteSpace=wrap;html=1;" vertex="1" parent="1">
          <mxGeometry x="440" y="30" width="320" height="350" as="geometry">
            <mxRectangle x="120" y="120" width="140" height="30" as="alternateBounds" />
          </mxGeometry>
        </mxCell>
        <mxCell id="uUd_5qt_KTcbapUtHBXe-79" value="" style="rounded=0;whiteSpace=wrap;html=1;" vertex="1" parent="uUd_5qt_KTcbapUtHBXe-64">
          <mxGeometry x="220" y="180" width="80" height="30" as="geometry" />
        </mxCell>
        <mxCell id="uUd_5qt_KTcbapUtHBXe-77" value="" style="rounded=0;whiteSpace=wrap;html=1;" vertex="1" parent="uUd_5qt_KTcbapUtHBXe-64">
          <mxGeometry x="110" y="180" width="80" height="30" as="geometry" />
        </mxCell>
        <mxCell id="uUd_5qt_KTcbapUtHBXe-65" value="" style="rounded=0;whiteSpace=wrap;html=1;" vertex="1" parent="uUd_5qt_KTcbapUtHBXe-64">
          <mxGeometry x="10" y="75" width="220" height="45" as="geometry" />
        </mxCell>
        <mxCell id="uUd_5qt_KTcbapUtHBXe-66" value="&quot;Descripción breve&quot;" style="text;html=1;align=center;verticalAlign=middle;resizable=0;points=[];autosize=1;strokeColor=none;fillColor=none;fontColor=#828282;" vertex="1" parent="uUd_5qt_KTcbapUtHBXe-64">
          <mxGeometry x="10" y="75" width="130" height="30" as="geometry" />
        </mxCell>
        <mxCell id="uUd_5qt_KTcbapUtHBXe-67" value="" style="rounded=0;whiteSpace=wrap;html=1;" vertex="1" parent="uUd_5qt_KTcbapUtHBXe-64">
          <mxGeometry x="10" y="40" width="220" height="20" as="geometry" />
        </mxCell>
        <mxCell id="uUd_5qt_KTcbapUtHBXe-68" value="&quot;Tarea 1&quot;" style="text;html=1;align=center;verticalAlign=middle;resizable=0;points=[];autosize=1;strokeColor=none;fillColor=none;fontColor=#828282;" vertex="1" parent="uUd_5qt_KTcbapUtHBXe-64">
          <mxGeometry x="30" y="35" width="70" height="30" as="geometry" />
        </mxCell>
        <mxCell id="uUd_5qt_KTcbapUtHBXe-69" value="" style="rounded=0;whiteSpace=wrap;html=1;" vertex="1" parent="uUd_5qt_KTcbapUtHBXe-64">
          <mxGeometry x="10" y="130" width="220" height="20" as="geometry" />
        </mxCell>
        <mxCell id="uUd_5qt_KTcbapUtHBXe-70" value="Fecha de vencimiento:" style="text;html=1;align=center;verticalAlign=middle;resizable=0;points=[];autosize=1;strokeColor=none;fillColor=none;fontColor=#828282;" vertex="1" parent="uUd_5qt_KTcbapUtHBXe-64">
          <mxGeometry x="5" y="125" width="140" height="30" as="geometry" />
        </mxCell>
        <mxCell id="uUd_5qt_KTcbapUtHBXe-72" value="&lt;font style=&quot;font-size: 9px;&quot;&gt;07/02/2025&lt;/font&gt;" style="text;html=1;align=center;verticalAlign=middle;resizable=0;points=[];autosize=1;strokeColor=none;fillColor=none;fontColor=#828282;" vertex="1" parent="uUd_5qt_KTcbapUtHBXe-64">
          <mxGeometry x="125" y="125" width="70" height="30" as="geometry" />
        </mxCell>
        <mxCell id="uUd_5qt_KTcbapUtHBXe-73" value="" style="rounded=0;whiteSpace=wrap;html=1;" vertex="1" parent="uUd_5qt_KTcbapUtHBXe-64">
          <mxGeometry x="10" y="180" width="80" height="30" as="geometry" />
        </mxCell>
        <mxCell id="uUd_5qt_KTcbapUtHBXe-74" value="Marcar como completado" style="text;html=1;align=center;verticalAlign=middle;whiteSpace=wrap;rounded=0;fontSize=10;" vertex="1" parent="uUd_5qt_KTcbapUtHBXe-64">
          <mxGeometry x="10" y="180" width="80" height="30" as="geometry" />
        </mxCell>
        <mxCell id="uUd_5qt_KTcbapUtHBXe-75" value="Editar" style="text;html=1;align=center;verticalAlign=middle;whiteSpace=wrap;rounded=0;fontSize=10;" vertex="1" parent="uUd_5qt_KTcbapUtHBXe-64">
          <mxGeometry x="110" y="180" width="80" height="30" as="geometry" />
        </mxCell>
        <mxCell id="uUd_5qt_KTcbapUtHBXe-80" value="Eliminar" style="text;html=1;align=center;verticalAlign=middle;whiteSpace=wrap;rounded=0;fontSize=10;" vertex="1" parent="uUd_5qt_KTcbapUtHBXe-64">
          <mxGeometry x="220" y="180" width="80" height="30" as="geometry" />
        </mxCell>
        <mxCell id="uUd_5qt_KTcbapUtHBXe-84" value="Editar" style="swimlane;whiteSpace=wrap;html=1;" vertex="1" parent="1">
          <mxGeometry x="40" y="440" width="320" height="350" as="geometry">
            <mxRectangle x="120" y="120" width="140" height="30" as="alternateBounds" />
          </mxGeometry>
        </mxCell>
        <mxCell id="uUd_5qt_KTcbapUtHBXe-87" value="" style="rounded=0;whiteSpace=wrap;html=1;" vertex="1" parent="uUd_5qt_KTcbapUtHBXe-84">
          <mxGeometry x="10" y="75" width="220" height="45" as="geometry" />
        </mxCell>
        <mxCell id="uUd_5qt_KTcbapUtHBXe-88" value="Descripcion:" style="text;html=1;align=center;verticalAlign=middle;resizable=0;points=[];autosize=1;strokeColor=none;fillColor=none;fontColor=#828282;" vertex="1" parent="uUd_5qt_KTcbapUtHBXe-84">
          <mxGeometry x="5" y="75" width="90" height="30" as="geometry" />
        </mxCell>
        <mxCell id="uUd_5qt_KTcbapUtHBXe-89" value="" style="rounded=0;whiteSpace=wrap;html=1;" vertex="1" parent="uUd_5qt_KTcbapUtHBXe-84">
          <mxGeometry x="10" y="40" width="220" height="20" as="geometry" />
        </mxCell>
        <mxCell id="uUd_5qt_KTcbapUtHBXe-90" value="Nombre de la tarea:" style="text;html=1;align=center;verticalAlign=middle;resizable=0;points=[];autosize=1;strokeColor=none;fillColor=none;fontColor=#828282;" vertex="1" parent="uUd_5qt_KTcbapUtHBXe-84">
          <mxGeometry x="5" y="35" width="130" height="30" as="geometry" />
        </mxCell>
        <mxCell id="uUd_5qt_KTcbapUtHBXe-91" value="" style="rounded=0;whiteSpace=wrap;html=1;" vertex="1" parent="uUd_5qt_KTcbapUtHBXe-84">
          <mxGeometry x="10" y="130" width="220" height="20" as="geometry" />
        </mxCell>
        <mxCell id="uUd_5qt_KTcbapUtHBXe-92" value="Fecha de vencimiento:" style="text;html=1;align=center;verticalAlign=middle;resizable=0;points=[];autosize=1;strokeColor=none;fillColor=none;fontColor=#828282;" vertex="1" parent="uUd_5qt_KTcbapUtHBXe-84">
          <mxGeometry x="5" y="125" width="140" height="30" as="geometry" />
        </mxCell>
        <mxCell id="uUd_5qt_KTcbapUtHBXe-93" value="&lt;font style=&quot;font-size: 9px;&quot;&gt;07/02/2025&lt;/font&gt;" style="text;html=1;align=center;verticalAlign=middle;resizable=0;points=[];autosize=1;strokeColor=none;fillColor=none;fontColor=#828282;" vertex="1" parent="uUd_5qt_KTcbapUtHBXe-84">
          <mxGeometry x="125" y="125" width="70" height="30" as="geometry" />
        </mxCell>
        <mxCell id="uUd_5qt_KTcbapUtHBXe-98" value="" style="group" vertex="1" connectable="0" parent="uUd_5qt_KTcbapUtHBXe-84">
          <mxGeometry x="180" y="180" width="80" height="30" as="geometry" />
        </mxCell>
        <mxCell id="uUd_5qt_KTcbapUtHBXe-86" value="" style="rounded=0;whiteSpace=wrap;html=1;" vertex="1" parent="uUd_5qt_KTcbapUtHBXe-98">
          <mxGeometry width="80" height="30" as="geometry" />
        </mxCell>
        <mxCell id="uUd_5qt_KTcbapUtHBXe-96" value="Cancelar" style="text;html=1;align=center;verticalAlign=middle;whiteSpace=wrap;rounded=0;fontSize=10;" vertex="1" parent="uUd_5qt_KTcbapUtHBXe-98">
          <mxGeometry width="80" height="30" as="geometry" />
        </mxCell>
        <mxCell id="uUd_5qt_KTcbapUtHBXe-99" value="" style="group" vertex="1" connectable="0" parent="uUd_5qt_KTcbapUtHBXe-84">
          <mxGeometry x="35" y="180" width="80" height="30" as="geometry" />
        </mxCell>
        <mxCell id="uUd_5qt_KTcbapUtHBXe-94" value="" style="rounded=0;whiteSpace=wrap;html=1;" vertex="1" parent="uUd_5qt_KTcbapUtHBXe-99">
          <mxGeometry width="80" height="30" as="geometry" />
        </mxCell>
        <mxCell id="uUd_5qt_KTcbapUtHBXe-95" value="Guardar" style="text;html=1;align=center;verticalAlign=middle;whiteSpace=wrap;rounded=0;fontSize=10;" vertex="1" parent="uUd_5qt_KTcbapUtHBXe-99">
          <mxGeometry width="80" height="30" as="geometry" />
        </mxCell>
        <mxCell id="uUd_5qt_KTcbapUtHBXe-100" value="Notificacion" style="swimlane;whiteSpace=wrap;html=1;" vertex="1" parent="1">
          <mxGeometry x="440" y="440" width="320" height="350" as="geometry">
            <mxRectangle x="120" y="120" width="140" height="30" as="alternateBounds" />
          </mxGeometry>
        </mxCell>
        <mxCell id="uUd_5qt_KTcbapUtHBXe-104" value="&#xa;Tienes una tarea pendiente por vencer: &#xa;&#xa;" style="text;html=1;align=center;verticalAlign=middle;resizable=0;points=[];autosize=1;strokeColor=none;fillColor=none;fontColor=light-dark(#000000, #7d7d7d);textShadow=1;" vertex="1" parent="uUd_5qt_KTcbapUtHBXe-100">
          <mxGeometry x="5" y="50" width="230" height="60" as="geometry" />
        </mxCell>
        <mxCell id="uUd_5qt_KTcbapUtHBXe-106" value="¡Recordatorio!" style="text;html=1;align=center;verticalAlign=middle;resizable=0;points=[];autosize=1;strokeColor=none;fillColor=none;fontColor=light-dark(#000000, #7d7d7d);fontSize=16;" vertex="1" parent="uUd_5qt_KTcbapUtHBXe-100">
          <mxGeometry x="15" y="30" width="120" height="30" as="geometry" />
        </mxCell>
        <mxCell id="uUd_5qt_KTcbapUtHBXe-108" value="Titulo:" style="text;html=1;align=center;verticalAlign=middle;resizable=0;points=[];autosize=1;strokeColor=none;fillColor=none;fontColor=#000000;fontSize=16;" vertex="1" parent="uUd_5qt_KTcbapUtHBXe-100">
          <mxGeometry x="5" y="100" width="70" height="30" as="geometry" />
        </mxCell>
        <mxCell id="uUd_5qt_KTcbapUtHBXe-109" value="&lt;font style=&quot;font-size: 9px;&quot;&gt;07/02/2025&lt;/font&gt;" style="text;html=1;align=center;verticalAlign=middle;resizable=0;points=[];autosize=1;strokeColor=none;fillColor=none;fontColor=#FF0707;" vertex="1" parent="uUd_5qt_KTcbapUtHBXe-100">
          <mxGeometry x="127.5" y="190" width="70" height="30" as="geometry" />
        </mxCell>
        <mxCell id="uUd_5qt_KTcbapUtHBXe-115" value="" style="rounded=0;whiteSpace=wrap;html=1;" vertex="1" parent="uUd_5qt_KTcbapUtHBXe-100">
          <mxGeometry x="75" y="100" width="175" height="30" as="geometry" />
        </mxCell>
        <mxCell id="uUd_5qt_KTcbapUtHBXe-116" value="&quot;Tarea 1&quot;" style="text;html=1;align=center;verticalAlign=middle;resizable=0;points=[];autosize=1;strokeColor=none;fillColor=none;fontColor=#000000;fontSize=16;" vertex="1" parent="uUd_5qt_KTcbapUtHBXe-100">
          <mxGeometry x="70" y="100" width="90" height="30" as="geometry" />
        </mxCell>
        <mxCell id="uUd_5qt_KTcbapUtHBXe-117" value="Descripcion:" style="text;html=1;align=center;verticalAlign=middle;resizable=0;points=[];autosize=1;strokeColor=none;fillColor=none;fontColor=#000000;fontSize=14;" vertex="1" parent="uUd_5qt_KTcbapUtHBXe-100">
          <mxGeometry x="5" y="145" width="100" height="30" as="geometry" />
        </mxCell>
        <mxCell id="uUd_5qt_KTcbapUtHBXe-118" value="&quot;Descripcion de la tarea&quot;" style="rounded=0;whiteSpace=wrap;html=1;" vertex="1" parent="uUd_5qt_KTcbapUtHBXe-100">
          <mxGeometry x="100" y="145" width="175" height="30" as="geometry" />
        </mxCell>
        <mxCell id="uUd_5qt_KTcbapUtHBXe-119" value="Fecha de vencimiento:" style="text;html=1;align=center;verticalAlign=middle;resizable=0;points=[];autosize=1;strokeColor=none;fillColor=none;fontColor=#000000;" vertex="1" parent="uUd_5qt_KTcbapUtHBXe-100">
          <mxGeometry x="5" y="190" width="140" height="30" as="geometry" />
        </mxCell>
      </root>
    </mxGraphModel>
  </diagram>
</mxfile>
